solid "부피<stl unit=MM>"
   facet normal 0 -1 0
      outer loop
         vertex 0 0 0
         vertex 0 0 -10
         vertex 10 0 0
      endloop
   endfacet
   facet normal 0 -1 0
      outer loop
         vertex 10 0 0
         vertex 0 0 -10
         vertex 10 0 -10
      endloop
   endfacet
   facet normal 0 1 0
      outer loop
         vertex 10 5 0
         vertex 10 5 -10
         vertex 0 5 0
      endloop
   endfacet
   facet normal 0 1 0
      outer loop
         vertex 0 5 0
         vertex 10 5 -10
         vertex 0 5 -10
      endloop
   endfacet
   facet normal 1 0 0
      outer loop
         vertex 10 5 -10
         vertex 10 5 0
         vertex 10 0 -10
      endloop
   endfacet
   facet normal 1 0 0
      outer loop
         vertex 10 0 -10
         vertex 10 5 0
         vertex 10 0 0
      endloop
   endfacet
   facet normal 0 0 -1
      outer loop
         vertex 0 5 -10
         vertex 10 5 -10
         vertex 0 0 -10
      endloop
   endfacet
   facet normal 0 0 -1
      outer loop
         vertex 0 0 -10
         vertex 10 5 -10
         vertex 10 0 -10
      endloop
   endfacet
   facet normal 0 0 1
      outer loop
         vertex 10 5 0
         vertex 0 5 0
         vertex 10 0 0
      endloop
   endfacet
   facet normal 0 0 1
      outer loop
         vertex 10 0 0
         vertex 0 5 0
         vertex 0 0 0
      endloop
   endfacet
   facet normal -1 0 0
      outer loop
         vertex 0 5 0
         vertex 0 5 -10
         vertex 0 0 0
      endloop
   endfacet
   facet normal -1 0 0
      outer loop
         vertex 0 0 0
         vertex 0 5 -10
         vertex 0 0 -10
      endloop
   endfacet
endsolid
solid "Solid<stl unit=MM>"  
   facet normal 0 0 1
      outer loop
         vertex 12 5 2
         vertex -2 5 2
         vertex 12 0 2
      endloop
   endfacet
   facet normal 0 0 1
      outer loop
         vertex 12 0 2
         vertex -2 5 2
         vertex -2 0 2
      endloop
   endfacet
   facet normal -1 0 0
      outer loop
         vertex -2 5 2
         vertex -2 5 -12
         vertex -2 0 2
      endloop
   endfacet
   facet normal -1 0 0
      outer loop
         vertex -2 0 2
         vertex -2 5 -12
         vertex -2 0 -12
      endloop
   endfacet
   facet normal 0 0 -1
      outer loop
         vertex -2 5 -12
         vertex 12 5 -12
         vertex -2 0 -12
      endloop
   endfacet
   facet normal 0 0 -1
      outer loop
         vertex -2 0 -12
         vertex 12 5 -12
         vertex 12 0 -12
      endloop
   endfacet
   facet normal 1 0 0
      outer loop
         vertex 12 5 -12
         vertex 12 5 2
         vertex 12 0 -12
      endloop
   endfacet
   facet normal 1 0 0
      outer loop
         vertex 12 0 -12
         vertex 12 5 2
         vertex 12 0 2
      endloop
   endfacet
   facet normal 0 0 -1
      outer loop
         vertex 0 5 0
         vertex 10 5 0
         vertex 0 0 0
      endloop
   endfacet
   facet normal 0 0 -1
      outer loop
         vertex 0 0 0
         vertex 10 5 0
         vertex 10 0 0
      endloop
   endfacet
   facet normal -1 0 0
      outer loop
         vertex 10 5 0
         vertex 10 5 -10
         vertex 10 0 0
      endloop
   endfacet
   facet normal -1 0 0
      outer loop
         vertex 10 0 0
         vertex 10 5 -10
         vertex 10 0 -10
      endloop
   endfacet
   facet normal 0 0 1
      outer loop
         vertex 10 5 -10
         vertex 0 5 -10
         vertex 10 0 -10
      endloop
   endfacet
   facet normal 0 0 1
      outer loop
         vertex 10 0 -10
         vertex 0 5 -10
         vertex 0 0 -10
      endloop
   endfacet
   facet normal 1 0 0
      outer loop
         vertex 0 5 -10
         vertex 0 5 0
         vertex 0 0 -10
      endloop
   endfacet
   facet normal 1 0 0
      outer loop
         vertex 0 0 -10
         vertex 0 5 0
         vertex 0 0 0
      endloop
   endfacet
   facet normal 0 1 0
      outer loop
         vertex 10 5 0
         vertex 0 5 0
         vertex -2 5 2
      endloop
   endfacet
   facet normal 0 1 0
      outer loop
         vertex -2 5 2
         vertex 0 5 0
         vertex 0 5 -10
      endloop
   endfacet
   facet normal 0 1 0
      outer loop
         vertex -2 5 2
         vertex 0 5 -10
         vertex -2 5 -12
      endloop
   endfacet
   facet normal 0 1 0
      outer loop
         vertex -2 5 -12
         vertex 0 5 -10
         vertex 10 5 -10
      endloop
   endfacet
   facet normal 0 1 0
      outer loop
         vertex -2 5 -12
         vertex 10 5 -10
         vertex 12 5 -12
      endloop
   endfacet
   facet normal 0 1 0
      outer loop
         vertex 12 5 -12
         vertex 10 5 -10
         vertex 10 5 0
      endloop
   endfacet
   facet normal 0 1 0
      outer loop
         vertex 12 5 -12
         vertex 10 5 0
         vertex 12 5 2
      endloop
   endfacet
   facet normal 0 1 0
      outer loop
         vertex 12 5 2
         vertex 10 5 0
         vertex -2 5 2
      endloop
   endfacet
   facet normal 0 -1 0
      outer loop
         vertex 0 0 -10
         vertex -2 0 -12
         vertex 10 0 -10
      endloop
   endfacet
   facet normal 0 -1 0
      outer loop
         vertex 10 0 -10
         vertex -2 0 -12
         vertex 12 0 -12
      endloop
   endfacet
   facet normal 0 -1 0
      outer loop
         vertex 10 0 -10
         vertex 12 0 -12
         vertex 12 0 2
      endloop
   endfacet
   facet normal 0 -1 0
      outer loop
         vertex 0 0 -10
         vertex 0 0 0
         vertex -2 0 -12
      endloop
   endfacet
   facet normal 0 -1 0
      outer loop
         vertex -2 0 -12
         vertex 0 0 0
         vertex -2 0 2
      endloop
   endfacet
   facet normal 0 -1 0
      outer loop
         vertex 0 0 0
         vertex 10 0 0
         vertex -2 0 2
      endloop
   endfacet
   facet normal 0 -1 0
      outer loop
         vertex -2 0 2
         vertex 10 0 0
         vertex 12 0 2
      endloop
   endfacet
   facet normal 0 -1 0
      outer loop
         vertex 10 0 0
         vertex 10 0 -10
         vertex 12 0 2
      endloop
   endfacet
endsolid
